<?xml version="1.0" standalone="no"?>
<!DOCTYPE svg PUBLIC "-//W3C//DTD SVG 20010904//EN"
 "http://www.w3.org/TR/2001/REC-SVG-20010904/DTD/svg10.dtd">
<svg version="1.0" xmlns="http://www.w3.org/2000/svg"
 width="1074.000000pt" height="1074.000000pt" viewBox="0 0 1074.000000 1074.000000"
 preserveAspectRatio="xMidYMid meet">
<metadata>
Created by potrace 1.14, written by Peter Selinger 2001-2017
</metadata>
<g transform="translate(0.000000,1074.000000) scale(0.100000,-0.100000)"
fill="#000000" stroke="none">
<path d="M4353 6973 c-107 -4 -116 -14 -58 -64 68 -60 65 -12 65 -1201 0 -877
2 -1068 13 -1068 7 0 21 24 30 54 22 67 55 117 90 134 40 19 78 3 167 -69 41
-34 103 -75 137 -91 252 -120 530 1 672 294 80 164 102 259 108 473 6 192 -4
302 -38 440 -25 100 -94 242 -153 317 -120 150 -321 218 -512 173 -106 -25
-192 -85 -271 -191 l-22 -29 0 418 -1 417 -67 -2 c-38 -1 -110 -4 -160 -5z
m650 -749 c230 -116 406 -567 383 -979 -15 -277 -120 -478 -277 -530 -117 -39
-253 -2 -339 91 -139 151 -189 421 -190 1035 l0 236 35 46 c49 64 122 111 200
131 43 11 136 -4 188 -30z"/>
<path d="M7200 6898 c0 -7 17 -22 37 -33 47 -25 63 -58 75 -155 5 -43 8 -466
6 -981 -3 -881 -4 -905 -23 -944 -11 -22 -37 -51 -57 -64 -77 -49 -66 -51 292
-51 285 0 330 2 330 15 0 8 -17 22 -37 30 -21 9 -50 27 -64 41 -50 48 -54 85
-54 509 l0 390 170 6 c94 3 199 11 235 18 399 75 606 306 587 656 -9 160 -53
263 -156 366 -104 104 -258 169 -466 198 -115 16 -875 15 -875 -1z m822 -88
c165 -55 252 -183 279 -415 21 -181 -17 -376 -97 -492 -43 -63 -98 -106 -171
-133 -60 -22 -214 -43 -283 -38 l-45 3 -3 540 c-1 297 0 546 3 554 8 22 234 8
317 -19z"/>
<path d="M1960 6885 c0 -8 13 -21 29 -29 42 -22 90 -81 127 -160 l34 -70 0
-666 c0 -672 -8 -889 -35 -1008 -21 -90 -70 -176 -127 -225 -26 -22 -48 -46
-48 -54 0 -11 54 -13 290 -13 246 0 290 2 290 14 0 8 -19 26 -41 40 -103 61
-163 145 -202 280 -20 68 -21 101 -24 726 l-3 655 81 -195 c44 -107 120 -292
168 -410 49 -118 171 -416 272 -662 l183 -448 31 0 c28 0 31 4 54 68 23 66
133 373 433 1202 82 228 159 442 170 475 12 33 25 64 30 70 5 5 7 -357 6 -830
-3 -827 -3 -841 -24 -879 -12 -24 -35 -47 -57 -59 -20 -10 -37 -25 -37 -33 0
-12 51 -14 310 -14 337 0 348 2 273 51 -75 48 -72 3 -72 1069 0 1066 -3 1021
72 1069 72 47 58 51 -193 51 l-230 0 -11 -27 c-12 -30 -165 -451 -421 -1155
-90 -245 -165 -444 -167 -443 -3 4 -96 233 -450 1118 l-204 507 -253 0 c-217
0 -254 -2 -254 -15z"/>
<path d="M5675 6310 c-4 -6 13 -29 37 -53 90 -88 111 -140 437 -1073 l172
-492 -61 -158 c-94 -243 -124 -284 -207 -284 -38 0 -54 7 -96 40 -27 22 -61
43 -74 46 -88 23 -171 -65 -143 -150 14 -44 68 -92 117 -105 91 -26 204 -6
271 48 102 80 148 186 467 1081 146 410 150 420 253 684 106 276 146 347 215
382 15 8 27 21 27 29 0 13 -36 15 -245 15 -210 0 -245 -2 -245 -15 0 -8 17
-23 39 -34 47 -25 85 -68 102 -118 17 -51 6 -187 -25 -303 -23 -87 -271 -838
-279 -847 -2 -2 -11 18 -20 44 -8 27 -68 201 -132 388 -204 592 -225 660 -225
720 0 66 13 96 51 119 16 9 29 24 29 32 0 12 -36 14 -229 14 -146 0 -232 -4
-236 -10z"/>
</g>
</svg>
