<?xml version="1.0" encoding="utf-8"?>
<!-- Generator: Adobe Illustrator 23.0.3, SVG Export Plug-In . SVG Version: 6.00 Build 0)  -->
<svg version="1.1" id="Capa_1" xmlns="http://www.w3.org/2000/svg" xmlns:xlink="http://www.w3.org/1999/xlink" x="0px" y="0px"
	 viewBox="0 0 594 129.86" style="enable-background:new 0 0 594 129.86;" xml:space="preserve">
<g>
	<g>
		<g>
			<path d="M0,64.55c1.41-0.85,2.64-2.07,3.49-3.58c0.85-1.51,1.41-3.49,1.79-6.03c0.28-2.54,0.47-5.75,0.47-9.8V10.08L5.65,9.71
				C4.81,7.73,3.96,6.22,3.3,5.28S1.7,3.68,0.57,3.3V2.36H14.7l18.47,46.08L49.94,2.36h13V3.3c-1.23,0.28-1.98,0.94-2.45,1.88
				c-0.47,1.04-0.75,2.54-0.75,4.52v48.44c0,1.98,0.28,3.49,0.75,4.43c0.47,1.04,1.23,1.7,2.45,1.98v0.94H45.61v-0.94
				c1.23-0.28,2.07-0.94,2.54-1.98c0.47-0.94,0.66-2.45,0.66-4.43V13.48L30.06,65.49h-1.6L8.48,16.68v28.46
				c0,4.05,0.19,7.35,0.66,9.8c0.47,2.54,1.23,4.52,2.36,5.94c1.04,1.51,2.64,2.73,4.62,3.68v0.94H0V64.55z"/>
			<path d="M75.78,64.74c-2.07-1.13-3.68-2.73-4.81-4.71c-1.13-1.98-1.7-4.33-1.7-6.97c0-4.71,1.7-9.14,5.09-13.38
				s8.76-8.48,16.11-12.72c-0.75-3.2-1.7-5.47-2.73-6.69c-1.13-1.23-2.64-1.88-4.62-1.88c-1.98,0-3.39,0.57-4.33,1.6
				c-1.04,1.13-1.6,2.92-1.88,5.28s-1.32,3.58-3.2,3.58c-0.94,0-1.7-0.28-2.26-0.94c-0.57-0.57-0.85-1.32-0.85-2.36
				c0-1.7,0.66-3.3,1.98-4.71c1.23-1.41,3.02-2.54,5.18-3.39c2.17-0.85,4.71-1.23,7.44-1.23c5.09,0,8.95,1.23,11.69,3.58
				c2.64,2.45,4.33,6.22,5.09,11.4l3.77,26.48c0.66,4.15,1.79,6.5,3.49,6.97v0.85h-4.05c-2.73,0-4.81-0.66-6.22-1.88
				c-1.41-1.23-2.54-3.49-3.2-6.69c-1.41,3.11-3.11,5.47-5.28,7.07c-2.17,1.6-4.71,2.45-7.63,2.45
				C80.11,66.44,77.75,65.87,75.78,64.74z M81.81,57.86c1.41,1.98,3.3,2.92,5.75,2.92c1.6,0,3.11-0.47,4.52-1.41
				c1.41-0.94,2.54-2.17,3.39-3.68l-4.43-26.01c-0.09-0.47-0.19-0.94-0.28-1.32c-3.86,3.3-6.69,6.69-8.48,10.18
				s-2.64,7.26-2.64,11.21C79.64,53.24,80.39,55.88,81.81,57.86z"/>
			<path d="M118.85,63.23c-2.64-2.07-4.71-4.99-6.13-8.76s-2.17-8.2-2.17-13.19c0-3.58,0.47-6.88,1.41-9.99
				c0.94-3.02,2.26-5.65,3.86-7.92s3.58-4.05,5.84-5.28c2.17-1.23,4.62-1.88,7.26-1.88c3.68,0,6.97,1.04,9.89,3.11V9.14
				c0-2.45-0.19-4.24-0.57-5.28c-0.47-1.04-1.23-1.88-2.45-2.54V0.47l13-0.47v57.39c0,2.36,0.19,4.05,0.66,5.09s1.23,1.79,2.26,2.17
				v0.85H139.2l-0.38-6.22c-1.04,2.17-2.45,3.86-4.43,5.18c-1.98,1.32-4.15,1.98-6.5,1.98C124.41,66.44,121.39,65.4,118.85,63.23z
				 M121.11,43.63c0.66,3.3,1.7,6.31,2.92,8.95c1.23,2.64,2.54,4.71,4.15,6.22c1.6,1.6,3.2,2.36,4.99,2.36
				c1.23,0,2.36-0.28,3.39-0.94c0.94-0.66,1.7-1.51,2.26-2.54v-11.5c0-9.14-0.85-16.11-2.64-20.83s-4.43-7.07-7.92-7.07
				c-2.54,0-4.62,1.32-6.03,4.05c-1.51,2.73-2.26,6.41-2.26,11.12C119.98,36.94,120.36,40.33,121.11,43.63z"/>
			<path d="M166.07,63.33c-2.92-2.07-5.18-4.99-6.78-8.86c-1.6-3.77-2.45-8.2-2.45-13.38c0-4.81,0.75-9.14,2.36-12.91
				c1.6-3.68,3.77-6.6,6.5-8.76s5.84-3.2,9.33-3.2c3.11,0,5.84,0.66,8.2,2.07c2.26,1.41,4.05,3.49,5.37,6.03
				c1.23,2.54,1.88,5.65,1.88,9.14v1.88h-25.54c0.19,4.33,1.04,8.2,2.45,11.5c1.41,3.39,3.3,6.03,5.75,7.92
				c2.36,1.98,5.09,2.92,8.1,2.92c3.49,0,6.41-1.32,8.58-3.96l0.57,0.28c-1.23,4.05-3.02,7.07-5.37,9.24
				c-2.36,2.17-5.28,3.2-8.76,3.2C172.38,66.44,168.99,65.4,166.07,63.33z M169.36,20.17c-1.41,1.32-2.45,3.11-3.2,5.37
				c-0.85,2.26-1.23,4.9-1.23,8.01l7.54-0.28c3.11-0.09,5.28-0.66,6.6-1.7c1.32-1.04,1.98-2.64,1.98-4.99
				c0-2.54-0.66-4.52-1.88-6.03c-1.23-1.51-2.92-2.26-4.99-2.26C172.38,18.28,170.78,18.94,169.36,20.17z"/>
			<path d="M212.25,65.49c-1.41-0.57-2.64-1.23-3.58-2.07c-1.04-0.85-1.88-1.51-2.64-2.17c-0.75-0.57-1.51-0.85-2.36-0.85
				c-1.6,0-2.92,1.88-3.77,5.56h-0.75V8.2c0-2.07-0.19-3.58-0.57-4.62c-0.38-0.94-1.13-1.7-2.26-2.26V0.47L205.46,0v23.84
				c1.13-2.17,2.73-3.86,4.71-5.09c1.98-1.23,4.24-1.79,6.69-1.79c3.49,0,6.41,1.04,8.95,3.02c2.54,2.07,4.43,4.99,5.84,8.76
				c1.32,3.86,1.98,8.29,1.98,13.48c0,3.49-0.38,6.69-1.23,9.61c-0.85,2.92-1.98,5.47-3.39,7.63c-1.51,2.17-3.2,3.86-5.18,5.09
				c-1.98,1.23-4.15,1.88-6.5,1.88C215.36,66.44,213.66,66.15,212.25,65.49z M217.62,64.36c2.07,0,3.96-0.75,5.56-2.17
				c1.6-1.41,2.83-3.39,3.68-5.94s1.32-5.47,1.32-8.86c0-3.68-0.38-7.07-1.13-10.37c-0.85-3.2-1.88-6.03-3.2-8.58
				c-1.41-2.54-2.92-4.52-4.71-5.94c-1.79-1.41-3.58-2.17-5.56-2.17c-1.6,0-3.2,0.47-4.62,1.32c-1.41,0.94-2.64,2.17-3.49,3.77
				v13.38C205.46,55.88,209.51,64.36,217.62,64.36z"/>
			<path d="M239.58,80.76c-1.13-0.85-1.7-1.88-1.7-3.11c0-0.85,0.28-1.6,0.94-2.26c0.57-0.66,1.32-0.94,2.36-0.94
				c0.85,0,1.6,0.19,2.17,0.66c0.47,0.47,1.04,0.85,1.51,1.32s1.13,0.66,1.88,0.66c1.04,0,1.88-0.38,2.54-1.04
				c0.66-0.66,1.32-1.79,1.98-3.3l3.2-8.29l-11.69-33.27c-1.04-2.64-1.88-4.71-2.54-6.31c-0.75-1.6-1.41-2.73-2.07-3.58
				c-0.66-0.85-1.32-1.41-1.98-1.79v-0.85h13v0.85c-1.51,0.57-2.26,1.7-2.26,3.3c0,0.85,0.09,1.7,0.38,2.64
				c0.19,0.94,0.66,2.36,1.32,4.24l9.05,26.39l6.31-18.85c1.04-3.11,1.7-5.47,2.07-7.26c0.38-1.79,0.57-3.2,0.57-4.43
				c0-2.92-1.41-4.99-4.24-6.03v-0.85h13.57v0.85c-0.75,0.28-1.41,0.75-1.98,1.32c-0.57,0.57-1.13,1.41-1.79,2.64
				s-1.32,2.92-2.17,5.09c-0.85,2.17-1.98,5.09-3.3,8.58l-10.37,28.84l-2.92,7.54c-1.23,2.92-2.54,5.09-3.96,6.41
				c-1.41,1.41-3.3,2.07-5.65,2.07C242.03,81.98,240.62,81.61,239.58,80.76z"/>
			<path d="M279.26,64.55c1.23-0.28,2.07-0.94,2.54-1.98c0.47-0.94,0.66-2.45,0.66-4.43V9.71c0-1.98-0.19-3.49-0.66-4.52
				c-0.47-0.94-1.32-1.6-2.54-1.88V2.36h17.62c8.01,0,14.14,1.51,18.28,4.43c4.15,3.02,6.22,7.35,6.22,12.91
				c0,5.75-2.07,10.18-6.31,13.29s-10.27,4.71-18.19,4.71h-3.49v19.88c0,2.17,0.28,3.77,0.94,4.81c0.66,1.04,1.79,1.7,3.39,2.17
				v0.94h-18.47V64.55z M296.88,35.53c4.52,0,7.92-1.32,10.18-4.05c2.17-2.73,3.3-6.6,3.3-11.78c0-4.99-1.13-8.86-3.3-11.4
				c-2.17-2.54-5.56-3.77-10.18-3.77h-3.49v31H296.88z"/>
			<path d="M332.23,64.74c-2.07-1.13-3.68-2.73-4.81-4.71c-1.13-1.98-1.7-4.33-1.7-6.97c0-4.71,1.7-9.14,5.09-13.38
				c3.39-4.24,8.76-8.48,16.11-12.72c-0.75-3.2-1.7-5.47-2.73-6.69c-1.13-1.23-2.64-1.88-4.62-1.88s-3.39,0.57-4.33,1.6
				c-1.04,1.13-1.6,2.92-1.88,5.28s-1.32,3.58-3.2,3.58c-0.94,0-1.7-0.28-2.26-0.94c-0.57-0.57-0.85-1.32-0.85-2.36
				c0-1.7,0.66-3.3,1.98-4.71c1.23-1.41,3.02-2.54,5.18-3.39c2.17-0.85,4.71-1.23,7.44-1.23c5.09,0,8.95,1.23,11.69,3.58
				c2.64,2.45,4.33,6.22,5.09,11.4l3.77,26.48c0.66,4.15,1.79,6.5,3.49,6.97v0.85h-4.05c-2.73,0-4.81-0.66-6.22-1.88
				c-1.41-1.23-2.54-3.49-3.2-6.69c-1.41,3.11-3.11,5.47-5.28,7.07c-2.17,1.6-4.71,2.45-7.63,2.45
				C336.56,66.44,334.21,65.87,332.23,64.74z M338.26,57.86c1.41,1.98,3.3,2.92,5.75,2.92c1.6,0,3.11-0.47,4.52-1.41
				c1.41-0.94,2.54-2.17,3.39-3.68l-4.43-26.01c-0.09-0.47-0.19-0.94-0.28-1.32c-3.86,3.3-6.69,6.69-8.48,10.18
				s-2.64,7.26-2.64,11.21C336.09,53.24,336.85,55.88,338.26,57.86z"/>
			<path d="M368.33,64.65c1.04-0.28,1.79-0.85,2.26-1.79c0.47-0.94,0.66-2.36,0.66-4.24V27.05c0-2.36-0.19-4.15-0.57-5.28
				c-0.47-1.04-1.23-1.88-2.36-2.45v-0.85l12.82-1.79l0.28,10.08c1.04-3.11,2.36-5.65,3.96-7.44s3.3-2.64,5.18-2.64
				c1.23,0,2.26,0.28,2.92,0.94c0.66,0.66,1.04,1.6,1.04,2.73c0,1.04-0.28,1.79-0.85,2.45c-0.57,0.66-1.32,0.94-2.36,0.94
				c-0.85,0-1.6-0.19-2.07-0.47c-0.47-0.28-1.13-0.38-1.88-0.38c-2.36,0-4.33,2.36-5.84,6.97v26.48c0,2.64,0.38,4.52,1.13,5.65
				c0.75,1.23,2.17,2.07,4.15,2.64v0.85h-18.47V64.65z"/>
			<path d="M406.31,14.14c1.98-2.17,3.58-5.18,4.62-9.05h0.75v13.38h6.97v2.64h-6.97v34.96c0,2.73,0.38,4.62,1.23,5.84
				c0.75,1.23,2.17,2.07,4.33,2.73v0.85h-18.75v-0.85c1.04-0.28,1.79-0.85,2.26-1.79c0.47-0.94,0.66-2.36,0.66-4.24V27.33
				c0-2.26-0.19-4.05-0.57-5.28c-0.38-1.23-1.13-2.07-2.36-2.73v-0.85C401.69,17.81,404.33,16.4,406.31,14.14z"/>
			<path d="M421.95,64.65c1.04-0.28,1.79-0.85,2.26-1.79c0.47-0.94,0.66-2.36,0.66-4.24V27.33c0-2.54-0.19-4.33-0.57-5.47
				c-0.47-1.13-1.23-1.98-2.36-2.54v-0.85l12.82-1.79l0.38,7.73c1.23-2.54,2.92-4.52,5.18-6.03c2.26-1.41,4.71-2.17,7.44-2.17
				c4.24,0,7.44,1.32,9.8,3.96c2.26,2.73,3.39,6.5,3.39,11.4v27.05c0,1.88,0.19,3.3,0.66,4.24c0.47,0.94,1.13,1.51,2.17,1.79v0.85
				h-16.02v-0.85c1.04-0.28,1.79-0.85,2.26-1.79c0.47-0.94,0.66-2.36,0.66-4.24V32.89c0-7.44-2.64-11.12-8.01-11.12
				c-3.02,0-5.56,1.32-7.54,3.96v32.89c0,1.88,0.19,3.3,0.66,4.24c0.47,0.94,1.23,1.51,2.26,1.79v0.85h-16.11V64.65z"/>
			<path d="M477.84,63.33c-2.92-2.07-5.18-4.99-6.78-8.86c-1.6-3.77-2.45-8.2-2.45-13.38c0-4.81,0.75-9.14,2.36-12.91
				c1.6-3.68,3.77-6.6,6.5-8.76s5.84-3.2,9.33-3.2c3.11,0,5.84,0.66,8.2,2.07c2.26,1.41,4.05,3.49,5.37,6.03
				c1.23,2.54,1.88,5.65,1.88,9.14v1.88h-25.54c0.19,4.33,1.04,8.2,2.45,11.5c1.41,3.39,3.3,6.03,5.75,7.92
				c2.36,1.98,5.09,2.92,8.1,2.92c3.49,0,6.41-1.32,8.58-3.96l0.57,0.28c-1.23,4.05-3.02,7.07-5.37,9.24
				c-2.36,2.17-5.28,3.2-8.76,3.2C484.16,66.44,480.77,65.4,477.84,63.33z M481.14,20.17c-1.41,1.32-2.45,3.11-3.2,5.37
				c-0.85,2.26-1.23,4.9-1.23,8.01l7.54-0.28c3.11-0.09,5.28-0.66,6.6-1.7c1.32-1.04,1.98-2.64,1.98-4.99
				c0-2.54-0.66-4.52-1.88-6.03s-2.92-2.26-4.99-2.26C484.16,18.28,482.56,18.94,481.14,20.17z"/>
			<path d="M507.63,64.65c1.04-0.28,1.79-0.85,2.26-1.79c0.47-0.94,0.66-2.36,0.66-4.24V27.05c0-2.36-0.19-4.15-0.57-5.28
				c-0.47-1.04-1.23-1.88-2.36-2.45v-0.85l12.82-1.79l0.28,10.08c1.04-3.11,2.36-5.65,3.96-7.44s3.3-2.64,5.18-2.64
				c1.23,0,2.26,0.28,2.92,0.94c0.66,0.66,1.04,1.6,1.04,2.73c0,1.04-0.28,1.79-0.85,2.45c-0.57,0.66-1.32,0.94-2.36,0.94
				c-0.85,0-1.6-0.19-2.07-0.47c-0.47-0.28-1.13-0.38-1.88-0.38c-2.36,0-4.33,2.36-5.84,6.97v26.48c0,2.64,0.38,4.52,1.13,5.65
				c0.75,1.23,2.17,2.07,4.15,2.64v0.85h-18.47V64.65z"/>
			<path d="M554.47,64.46c2.07,0,3.68-0.66,4.9-1.88c1.23-1.23,1.79-2.92,1.79-5.09c0-1.88-0.38-3.49-1.23-4.9
				c-0.85-1.32-1.88-2.54-3.3-3.58s-2.83-2.07-4.43-3.11c-1.6-0.94-3.3-1.88-4.9-2.92c-1.6-1.04-3.11-2.17-4.43-3.39
				c-1.41-1.23-2.45-2.73-3.3-4.43c-0.85-1.7-1.23-3.68-1.23-5.94c0-2.54,0.57-4.81,1.79-6.78c1.13-1.98,2.73-3.49,4.81-4.62
				c1.98-1.04,4.33-1.6,6.97-1.6c1.41,0,2.73,0.09,3.86,0.38c1.13,0.28,2.17,0.57,3.02,0.85c0.85,0.28,1.6,0.38,2.26,0.38
				c1.23,0,2.17-0.38,2.64-1.13h0.66l1.41,15.36h-0.94c-3.68-9.24-8.01-13.85-13-13.85c-1.88,0-3.39,0.57-4.52,1.6
				c-1.13,1.13-1.7,2.64-1.7,4.43c0,1.6,0.38,2.92,1.23,4.05c0.85,1.13,1.88,2.17,3.3,3.11c1.41,0.94,2.92,1.88,4.52,2.73
				c1.6,0.94,3.3,1.88,4.9,2.92s3.02,2.26,4.43,3.58c1.41,1.41,2.45,3.02,3.3,4.81c0.85,1.79,1.23,3.96,1.23,6.5
				c0,2.92-0.57,5.47-1.7,7.63c-1.23,2.17-2.83,3.86-4.99,5.09c-2.17,1.23-4.62,1.79-7.54,1.79c-2.54,0-4.71-0.28-6.5-0.85
				c-1.79-0.47-3.39-0.75-4.71-0.75c-1.41,0-2.45,0.38-3.11,1.13h-0.66l-1.6-18h0.85C542.78,58.99,548.15,64.46,554.47,64.46z"/>
		</g>
		<g>
			<path d="M583.21,45.73c4.95,0,8.97,4.02,8.97,8.97s-4.02,8.97-8.97,8.97c-4.95,0-8.97-4.02-8.97-8.97S578.26,45.73,583.21,45.73
				 M583.21,43.91c-5.96,0-10.79,4.83-10.79,10.79s4.83,10.79,10.79,10.79S594,60.66,594,54.7S589.17,43.91,583.21,43.91
				L583.21,43.91z"/>
			<path d="M587.82,57.11c-0.06-1.19-0.53-1.97-1.4-2.34c1.15-0.5,1.73-1.42,1.73-2.76c0-1.09-0.38-1.94-1.15-2.53
				c-0.76-0.59-1.8-0.89-3.11-0.89h-5.2v11.94h2.34v-4.64h2.9c0.56,0,0.95,0.12,1.17,0.35c0.22,0.24,0.36,0.68,0.42,1.34l0.09,1.22
				c0.03,0.78,0.19,1.36,0.47,1.73h2.43c-0.34-0.47-0.53-1.05-0.56-1.73L587.82,57.11z M583.94,53.88h-2.9V50.7h2.76
				c1.28,0,1.92,0.53,1.92,1.59C585.72,53.35,585.12,53.88,583.94,53.88z"/>
		</g>
	</g>
	<g>
		<g>
			<path style="fill: transparent" d="M183.68,129.86h-2.22l-0.87-2.44h-4.84l-0.85,2.44h-2.16l4.21-11.05h2.45L183.68,129.86z M176.8,124.44l-0.42,1.2h3.57 l-0.43-1.2c-0.36-0.92-0.82-2.18-1.37-3.79C177.72,121.94,177.27,123.2,176.8,124.44z"/>
			<path style="fill: transparent" d="M190.37,118.81h4.86c1.23,0,2.19,0.32,2.88,0.97c0.69,0.65,1.03,1.52,1.03,2.63c0,1.1-0.34,1.97-1.03,2.62 c-0.69,0.65-1.65,0.97-2.88,0.97h-2.76v3.86h-2.09V118.81z M192.46,124.19h2.67c0.61,0,1.08-0.15,1.41-0.46 c0.33-0.31,0.49-0.75,0.49-1.33s-0.16-1.02-0.49-1.33c-0.33-0.31-0.79-0.47-1.41-0.47h-2.67V124.19z"/>
			<path style="fill: transparent" d="M206.01,130.09c-1.44,0-2.57-0.39-3.39-1.16c-0.82-0.77-1.23-1.85-1.23-3.24v-6.89h2.09v6.91c0,0.84,0.22,1.47,0.65,1.91 c0.43,0.44,1.06,0.65,1.88,0.65s1.44-0.22,1.88-0.65c0.43-0.43,0.65-1.07,0.65-1.91v-6.91h2.09v6.89c0,1.41-0.41,2.49-1.23,3.25 C208.6,129.71,207.46,130.09,206.01,130.09z"/>
			<path style="fill: transparent" d="M220.76,121.69v-2.89h2.02v11.05h-2.33l-3.07-4.92c-0.84-1.31-1.5-2.42-1.97-3.32c0.04,1.16,0.06,2.94,0.06,5.35v2.89 h-2.02v-11.05h2.33l3.09,4.92c0.92,1.49,1.57,2.6,1.96,3.32C220.78,125.51,220.76,123.72,220.76,121.69z"/>
			<path style="fill: transparent" d="M233.02,118.81h2.61l-4.55,4.5l4.55,6.55h-2.5l-3.54-5.15l-1.74,1.69v3.46h-2.09v-11.05h2.09v5.22L233.02,118.81z"/>
			<path style="fill: transparent" d="M244.13,119.86l-0.25,0.02c-0.45,0.03-0.67,0.36-0.67,0.99v0.25h0.92v2.08h-2.14v-2.25c0-1.39,0.63-2.1,1.88-2.14 l0.26-0.02V119.86z"/>
			<path style="fill: transparent" d="M254.1,121.69v-2.89h2.02v11.05h-2.33l-3.07-4.92c-0.84-1.31-1.5-2.42-1.97-3.32c0.04,1.16,0.06,2.94,0.06,5.35v2.89 h-2.02v-11.05h2.33l3.09,4.92c0.92,1.49,1.57,2.6,1.96,3.32C254.12,125.51,254.1,123.72,254.1,121.69z"/>
			<path style="fill: transparent" d="M267.25,118.81v1.88h-6.05v2.61h5.48v1.8h-5.48v2.89h6.02v1.88h-8.12v-11.05H267.25z"/>
			<path style="fill: transparent" d="M280.45,123.26l1.16-4.45h2.17l-3.06,11.05h-2.36l-1.18-4.59c-0.49-2.02-0.79-3.32-0.9-3.91 c-0.29,1.38-0.59,2.68-0.9,3.91l-1.18,4.59h-2.34l-3.07-11.05h2.19l1.15,4.45c0.54,2.15,0.87,3.55,1.01,4.21 c0.33-1.55,0.65-2.96,0.95-4.22l1.13-4.44h2.16l1.13,4.44c0.29,1.18,0.6,2.59,0.93,4.24C279.66,126.52,280,125.11,280.45,123.26z "/>
			<path style="fill: transparent" d="M285.64,120.89v-2.08h2.14v2.25c0,1.39-0.63,2.1-1.88,2.14l-0.26,0.02v-1.07l0.25-0.02c0.45-0.03,0.67-0.36,0.67-0.99 v-0.25H285.64z"/>
			<path style="fill: transparent" d="M302.04,124.04c0.61,0.22,1.08,0.56,1.42,1.04c0.34,0.48,0.5,1.01,0.5,1.61c0,1-0.33,1.78-0.99,2.34 c-0.66,0.55-1.61,0.83-2.86,0.83h-5.17v-11.05h5c1.16,0,2.04,0.26,2.65,0.79c0.61,0.53,0.92,1.22,0.92,2.06 C303.52,122.75,303.03,123.54,302.04,124.04z M299.79,120.53h-2.75v2.89h2.75c0.53,0,0.93-0.13,1.22-0.4 c0.29-0.26,0.43-0.63,0.43-1.09c0-0.43-0.15-0.78-0.44-1.02C300.71,120.65,300.31,120.53,299.79,120.53z M297.05,128.12h2.96 c0.59,0,1.04-0.13,1.35-0.4c0.31-0.26,0.47-0.64,0.47-1.13c0-1.02-0.61-1.54-1.82-1.54h-2.96V128.12z"/>
			<path style="fill: transparent" d="M315,126.92l0.09,1.65c0.01,0.53,0.12,0.96,0.34,1.29h-2.16c-0.19-0.31-0.29-0.75-0.29-1.32l-0.05-1.21 c-0.03-0.67-0.18-1.14-0.46-1.4c-0.27-0.26-0.71-0.4-1.31-0.4h-2.73v4.33h-2.1v-11.05h5.01c1.23,0,2.19,0.28,2.87,0.84 c0.68,0.56,1.02,1.32,1.02,2.28c0,1.32-0.62,2.2-1.85,2.64c0.56,0.18,0.96,0.45,1.2,0.83C314.85,125.77,314.98,126.28,315,126.92 z M308.44,120.53v3.35h2.79c0.59,0,1.05-0.15,1.37-0.44c0.33-0.29,0.49-0.72,0.49-1.28c0-0.53-0.17-0.93-0.5-1.21 c-0.34-0.28-0.82-0.42-1.44-0.42H308.44z"/>
			<path style="fill: transparent" d="M327.72,129.86h-2.22l-0.87-2.44h-4.84l-0.85,2.44h-2.16l4.21-11.05h2.45L327.72,129.86z M320.84,124.44l-0.42,1.2h3.57 l-0.43-1.2c-0.36-0.92-0.82-2.18-1.37-3.79C321.76,121.94,321.31,123.2,320.84,124.44z"/>
			<path style="fill: transparent" d="M337,121.69v-2.89h2.02v11.05h-2.33l-3.07-4.92c-0.84-1.31-1.5-2.42-1.97-3.32c0.04,1.16,0.06,2.94,0.06,5.35v2.89h-2.02 v-11.05h2.33l3.09,4.92c0.92,1.49,1.57,2.6,1.96,3.32C337.02,125.51,337,123.72,337,121.69z"/>
			<path style="fill: transparent" d="M342,118.81h4.22c1.77,0,3.14,0.49,4.1,1.47c0.96,0.99,1.44,2.34,1.44,4.05c0,1.71-0.48,3.05-1.44,4.04 c-0.96,0.99-2.33,1.49-4.1,1.49H342V118.81z M344.09,128.06h2.1c1.09,0,1.92-0.32,2.51-0.95c0.59-0.64,0.88-1.56,0.88-2.77 c0-1.21-0.29-2.13-0.88-2.77c-0.59-0.64-1.43-0.95-2.51-0.95h-2.1V128.06z"/>
			<path style="fill: transparent" d="M363,130.11c-1.5,0-2.66-0.34-3.48-1.01c-0.82-0.67-1.24-1.63-1.25-2.89h2.06c0.01,0.79,0.25,1.35,0.71,1.69 c0.46,0.34,1.14,0.51,2.03,0.51c0.72,0,1.28-0.14,1.66-0.41c0.38-0.27,0.57-0.67,0.57-1.19c0-0.44-0.16-0.77-0.49-0.99 c-0.33-0.23-0.92-0.43-1.78-0.61l-0.93-0.19c-2.37-0.44-3.55-1.56-3.55-3.35c0-0.95,0.36-1.71,1.09-2.27s1.73-0.85,3.01-0.85 c1.46,0,2.56,0.31,3.31,0.93c0.75,0.62,1.15,1.49,1.19,2.61h-2.03c-0.04-0.63-0.25-1.1-0.63-1.4c-0.38-0.3-0.98-0.45-1.81-0.45 c-0.64,0-1.13,0.12-1.47,0.36c-0.34,0.24-0.51,0.57-0.51,1.01c0,0.45,0.16,0.79,0.47,1.02c0.32,0.24,0.88,0.44,1.68,0.61 l0.96,0.19c1.29,0.26,2.23,0.64,2.8,1.16s0.86,1.22,0.86,2.12c0,1.08-0.39,1.91-1.18,2.51C365.5,129.81,364.4,130.11,363,130.11z "/>
			<path style="fill: transparent" d="M368.62,118.81h9.19v1.88h-3.54v9.17h-2.11v-9.17h-3.54V118.81z"/>
			<path style="fill: transparent" d="M384.39,130.09c-1.44,0-2.57-0.39-3.39-1.16c-0.82-0.77-1.23-1.85-1.23-3.24v-6.89h2.1v6.91c0,0.84,0.22,1.47,0.65,1.91 c0.44,0.44,1.06,0.65,1.88,0.65c0.82,0,1.44-0.22,1.88-0.65c0.43-0.43,0.65-1.07,0.65-1.91v-6.91h2.1v6.89 c0,1.41-0.41,2.49-1.23,3.25C386.97,129.71,385.83,130.09,384.39,130.09z"/>
			<path style="fill: transparent" d="M391.82,118.81h4.22c1.77,0,3.13,0.49,4.1,1.47c0.96,0.99,1.44,2.34,1.44,4.05c0,1.71-0.48,3.05-1.44,4.04 c-0.96,0.99-2.33,1.49-4.1,1.49h-4.22V118.81z M393.92,128.06h2.1c1.09,0,1.92-0.32,2.51-0.95c0.59-0.64,0.88-1.56,0.88-2.77 c0-1.21-0.29-2.13-0.88-2.77c-0.59-0.64-1.43-0.95-2.51-0.95h-2.1V128.06z"/>
			<path style="fill: transparent" d="M406.19,129.86h-2.1v-11.05h2.1V129.86z"/>
			<path style="fill: transparent" d="M414.23,130.11c-1.66,0-2.99-0.53-4-1.58c-1.01-1.07-1.52-2.46-1.52-4.19c0-1.73,0.51-3.12,1.52-4.19 c1.01-1.06,2.35-1.58,4-1.58s2.99,0.53,4,1.58c1,1.04,1.51,2.44,1.51,4.19c0,1.75-0.5,3.15-1.51,4.19 C417.22,129.58,415.89,130.11,414.23,130.11z M410.9,124.33c0,1.21,0.3,2.17,0.92,2.87c0.61,0.7,1.42,1.06,2.42,1.06 c1.01,0,1.83-0.35,2.44-1.06c0.6-0.69,0.9-1.65,0.9-2.87c0-1.22-0.3-2.18-0.9-2.87c-0.61-0.7-1.42-1.06-2.44-1.06 c-1,0-1.81,0.35-2.42,1.06C411.2,122.16,410.9,123.12,410.9,124.33z"/>
		</g>
	</g>
</g>
</svg>
